/* XPM */
static char * img0_xpm[] = {
"32 32 98 2",
"  	c #EDF0E7",
". 	c #ECF1E7",
"+ 	c #EBF1E7",
"@ 	c #EAF2E7",
"# 	c #E9F1E4",
"$ 	c #E9F1E5",
"% 	c #E9F1E6",
"& 	c #E9F0E8",
"* 	c #E9F1E7",
"= 	c #EAF2E6",
"- 	c #EBF3E8",
"; 	c #EAF2E8",
"> 	c #E9F0E7",
", 	c #E9F1E3",
"' 	c #E9F2E6",
") 	c #E9F1E2",
"! 	c #ECF0E7",
"~ 	c #ECF1E5",
"{ 	c #EBF1E4",
"] 	c #ECF1E6",
"^ 	c #EAF0E6",
"/ 	c #EBF0E7",
"( 	c #EBF0E8",
"_ 	c #EBF0E9",
": 	c #EBF1E6",
"< 	c #EBF1E5",
"[ 	c #EBF0E6",
"} 	c #EAF1E7",
"| 	c #E9F1E8",
"1 	c #EAF1E8",
"2 	c #ECEFE6",
"3 	c #EDF0E4",
"4 	c #EDF1E3",
"5 	c #EDF0E5",
"6 	c #ECEFE8",
"7 	c #EAF0E7",
"8 	c #EAF1E9",
"9 	c #ECEFE7",
"0 	c #EDF0E6",
"a 	c #ECEFE5",
"b 	c #EAF0E5",
"c 	c #EDF0E8",
"d 	c #EDF0E9",
"e 	c #ECEFE4",
"f 	c #ECEFE3",
"g 	c #ECF0E2",
"h 	c #EAF0E3",
"i 	c #ECF0E4",
"j 	c #EBF0E5",
"k 	c #ECF0E6",
"l 	c #EAEFE5",
"m 	c #EBEFE6",
"n 	c #EBEFE5",
"o 	c #EBF0E4",
"p 	c #EAF1E4",
"q 	c #EAF0E4",
"r 	c #E8EEE2",
"s 	c #E9EFE3",
"t 	c #EAF0E1",
"u 	c #E8EFDF",
"v 	c #E9F0E0",
"w 	c #EAF1E1",
"x 	c #EAF1E0",
"y 	c #E9F0DE",
"z 	c #EAF1DF",
"A 	c #ECF0E3",
"B 	c #EBF0E3",
"C 	c #EAF0E2",
"D 	c #ECEFE2",
"E 	c #EEEFE8",
"F 	c #EAEFE7",
"G 	c #EBF1E1",
"H 	c #EAF1E2",
"I 	c #EAF2E1",
"J 	c #E9F2E1",
"K 	c #EAF2E3",
"L 	c #E9EFE5",
"M 	c #EBF1E3",
"N 	c #E9F1E0",
"O 	c #EAF2E2",
"P 	c #E8F0DF",
"Q 	c #E8F1E0",
"R 	c #E8EEE4",
"S 	c #EBF1E8",
"T 	c #E9F0E1",
"U 	c #E9F0E2",
"V 	c #E9EFE4",
"W 	c #E8EEE3",
"X 	c #ECF0E5",
"Y 	c #EBEFE4",
"Z 	c #EBEFE3",
"` 	c #EAEEE3",
" .	c #E9EDE2",
"..	c #EBEEE3",
"+.	c #EAEDE2",
"@.	c #EAEFE3",
"#.	c #E9EEE2",
"$.	c #E9EFE1",
"        . + + + + + @ @ @ @ @ @ # # # $ % & * % % % % % @ @ @ % ",
"        . + + + + + @ @ @ @ @ @ = $ $ % $ $ % % % % @ @ @ @ @ @ ",
"        . + + + + + @ @ @ % % - ; > % $ # , $ % % @ @ @ @ @ @ @ ",
"        . + + + + + @ @ @ % ' - ; & > $ , ) # % % @ @ @ @ @ @ @ ",
"          ! ! ! ! ! ~ { ] ^ / ( _ / / : < ~ < / / : [ [ } | | 1 ",
"  2                 3 4 5 2 6 6                   2 2 2 7 & & 8 ",
"                    5 5 5 2 2 9                   2 2 2 ^ % % @ ",
"                    0 0 0 2 a a 0             2 2 2 2 2 b $ $ $ ",
"                    c d   a e f 5           2 2 2 2 2 2 b # # # ",
"                    c d c a f g 5           2 2 2 2 2 2 h ) ) ) ",
"        0 3 5 5 5 5   c c 2 e e i j j k ] ] [ l m [ [ [ n j o p ",
"        5 4 4 4 4 4 0     2 2 2 j q q q q q { r s q q q a 2 2 / ",
"        0 5 5 5 5 5 0     2 2 2 j q q s s s t u v w x x e a a [ ",
"          0 0 0 0 0 0 2 2       j < < q s s x y z z z z g A A B ",
"                    2 2 2       ] < < q q q C w w w w w D g g C ",
"        c d d d d d 9 2 2       ] < < q q q q b b q b b D g g t ",
"          E E E E E ! [ [ [ [ [ / 7 7 ^ 7 F b b b b < < G w w H ",
"                    [ ^ ^ ^ ^ ^ ^ ^ ^ ^ ^ ^ b q q < < < I J J K ",
"                    [ ^ ^ ^ ^ ^ b h h h h h q q q < < < I J J K ",
"2       ! . . / [ [ L ^ + ^ + + { M M C C C h q q q q q N J O K ",
"2       + @ @ % % % L ^ ^ + + + : < < b q q q q q q q q P Q O K ",
"2       + @ @ % % % + L R + + + S S S 7 7 7 b q q q q q P Q O K ",
"2         . ! [ [ [ + ^ L ^ ^ ^ ^ ^ ^ b b ^ s s < q q q T T H U ",
"              2 2 2 [ ^ ^ ^ ^ ^ b q q q q q s s < q q q C C C s ",
"              2 2 2 [ ^ ^ ^ ^ ^ b q q q q q s s < q q q C C C { ",
"2             2 2 2 [ ^ ^ ^ ^ ^ V s s s s s s q q q q q C C C < ",
"2 2 2 2       2 2 2 [ ^ ^ L R R W r r r r r s q q q q q C C C { ",
"2 2           2 2 2 [ ^ ^ ^ L L s r r r r r s q q q q q C C C { ",
"          2 2 2 2 2 a n n a X X Y Z Z `  . .q < < q q q w w C M ",
"        2 2 2 2 2 2 a e e e e e e e e ..+.+.@.q q q q q x w w C ",
"        2 2 2 2 2 2 a e e e e e e e e ..+.+.#.r r q q q x w H $.",
"        2 2 2 2 2 2 a e e e e e ......+.+.+.#.r r s q q x w w C "};
