/* XPM */
static char * imge_xpm[] = {
"32 32 217 2",
"  	c None",
". 	c #AA9B6C",
"+ 	c #7B765A",
"@ 	c #998A64",
"# 	c #A5A584",
"$ 	c #B4AD9A",
"% 	c #7E8A69",
"& 	c #8E4F2D",
"* 	c #844713",
"= 	c #887A6D",
"- 	c #A69B75",
"; 	c #A98A68",
"> 	c #B08D52",
", 	c #724C33",
"' 	c #989766",
") 	c #BBB48E",
"! 	c #E9DEC4",
"~ 	c #B06833",
"{ 	c #38441E",
"] 	c #6E7739",
"^ 	c #948553",
"/ 	c #AC6945",
"( 	c #661E00",
"_ 	c #726C2F",
": 	c #7D6A37",
"< 	c #EBBAAF",
"[ 	c #DCF5E5",
"} 	c #E7E9D5",
"| 	c #453529",
"1 	c #B3C795",
"2 	c #F1E7C9",
"3 	c #F4DCC3",
"4 	c #88773C",
"5 	c #670B04",
"6 	c #A74A35",
"7 	c #7C250E",
"8 	c #CFB17E",
"9 	c #A89555",
"0 	c #F3F2E5",
"a 	c #F2F2D6",
"b 	c #594A31",
"c 	c #CA986D",
"d 	c #E9D8B5",
"e 	c #BED3C4",
"f 	c #843418",
"g 	c #6C2706",
"h 	c #926A30",
"i 	c #9A3A0E",
"j 	c #942809",
"k 	c #CD8F54",
"l 	c #E4CC97",
"m 	c #DC9A7F",
"n 	c #B16C4C",
"o 	c #AC5829",
"p 	c #D8976A",
"q 	c #D9D9C9",
"r 	c #754D1C",
"s 	c #723517",
"t 	c #6C2C17",
"u 	c #A17E62",
"v 	c #C9B897",
"w 	c #BB843C",
"x 	c #85280D",
"y 	c #561514",
"z 	c #8A2627",
"A 	c #553728",
"B 	c #A84815",
"C 	c #2E1514",
"D 	c #580C18",
"E 	c #B8572A",
"F 	c #DAC8A7",
"G 	c #8A452D",
"H 	c #C9520C",
"I 	c #711410",
"J 	c #464737",
"K 	c #472728",
"L 	c #522B47",
"M 	c #49514C",
"N 	c #8E140C",
"O 	c #500D0F",
"P 	c #C9582E",
"Q 	c #B0998C",
"R 	c #B2330F",
"S 	c #8C1809",
"T 	c #763527",
"U 	c #133E4F",
"V 	c #325145",
"W 	c #3B4536",
"X 	c #462F37",
"Y 	c #DCE8D5",
"Z 	c #CBCE93",
"` 	c #5A7246",
" .	c #768F70",
"..	c #90AF8E",
"+.	c #AEB59C",
"@.	c #5E3539",
"#.	c #542D14",
"$.	c #2B2829",
"%.	c #39372B",
"&.	c #A82604",
"*.	c #CCB285",
"=.	c #E6ECE5",
"-.	c #8A865B",
";.	c #D1D1C4",
">.	c #BCCAB2",
",.	c #CBCDBE",
"'.	c #673F34",
").	c #6C1132",
"!.	c #6E332B",
"~.	c #942418",
"{.	c #666847",
"].	c #42351B",
"^.	c #14322B",
"/.	c #893832",
"(.	c #99A884",
"_.	c #8D986B",
":.	c #B0AAA4",
"<.	c #D6AA89",
"[.	c #AE490F",
"}.	c #586547",
"|.	c #F9E9D7",
"1.	c #D4CAB8",
"2.	c #D6AC98",
"3.	c #D8A76C",
"4.	c #CEAA56",
"5.	c #9D8B4E",
"6.	c #AB322F",
"7.	c #CA4B35",
"8.	c #C9796B",
"9.	c #B18C70",
"0.	c #CF958E",
"a.	c #CAA987",
"b.	c #DAB795",
"c.	c #4F152E",
"d.	c #596561",
"e.	c #B35F50",
"f.	c #D37C6B",
"g.	c #B5A578",
"h.	c #B77F66",
"i.	c #CF754F",
"j.	c #ED675C",
"k.	c #CE5746",
"l.	c #E5A247",
"m.	c #D07213",
"n.	c #918C69",
"o.	c #C3A4A2",
"p.	c #CF5343",
"q.	c #D58773",
"r.	c #E7D05C",
"s.	c #BA6B1C",
"t.	c #801726",
"u.	c #E19158",
"v.	c #D3A276",
"w.	c #96574C",
"x.	c #872718",
"y.	c #9A2324",
"z.	c #CB7239",
"A.	c #C7886C",
"B.	c #B7BA7B",
"C.	c #C13329",
"D.	c #AC180D",
"E.	c #C7CDAA",
"F.	c #9DA592",
"G.	c #9AA670",
"H.	c #B7C2A2",
"I.	c #C7B979",
"J.	c #61582E",
"K.	c #ADB072",
"L.	c #A7A969",
"M.	c #565C3A",
"N.	c #B48656",
"O.	c #D28D32",
"P.	c #854947",
"Q.	c #5F2A35",
"R.	c #732F44",
"S.	c #686754",
"T.	c #5A6B5B",
"U.	c #949678",
"V.	c #E6BA92",
"W.	c #68623B",
"X.	c #6C7362",
"Y.	c #688656",
"Z.	c #0F1511",
"`.	c #48472A",
" +	c #92754F",
".+	c #766849",
"++	c #4E471A",
"@+	c #545627",
"#+	c #585443",
"$+	c #344B2A",
"%+	c #293727",
"&+	c #695B36",
"*+	c #0E2D15",
"=+	c #724E4C",
"-+	c #3E462B",
";+	c #76452C",
">+	c #49512A",
",+	c #685B62",
"'+	c #9F8C8E",
")+	c #6E6966",
"!+	c #7C5D3C",
"~+	c #B7B7A4",
"{+	c #4A533A",
"]+	c #8A9672",
"^+	c #48633C",
"/+	c #6D724C",
"(+	c #383C39",
"_+	c #B2BA99",
":+	c #AAB58A",
"<+	c #9C863D",
"[+	c #153324",
"}+	c #E8E5C7",
"|+	c #CBD8AB",
"1+	c #7B865A",
"2+	c #CAE2BE",
"3+	c #C5BDA4",
"4+	c #D4D8B8",
"                                                                ",
"                                        . +                     ",
"                    @     #     $ . % & * =       - ;           ",
"                      > , ' ) @ ! ~ { ] ^       ) / ( /         ",
"                        ' _ : < [ } | 1 2 3     4 5 6 7 8       ",
"                      ~ ~ 9 2 0 a } b c ~ * d e & f & g h       ",
"                    i j ~ k 8 l m n h o ( ( p q r s t u v       ",
"                  w x y g o z A A s B f C D E 2 q F G -         ",
"                  H y y I , J K L M 7 N O C P 2 a Q s 4         ",
"                  R S x T b M U V W X f t f B 2 Y Z =           ",
"                  f S j X `  ...+...@.#.$.%.&.*.=.-.            ",
"                E 7 z t L v ;.>.,.v '.M ).!.~.E {.              ",
"                &.X ].^./.Q (._.:.<.o z R 6 I [.                ",
"              [.G L !.}.P < |.$ 1.2.3.3.4.5.$.R                 ",
"              &.z !.z 6.7.8.9.0.a.F b.a.p 4.& ~.x               ",
"            S ~.c.d.*.e.f.g.> g.0.h.i.j.k.l.m.D N               ",
"          &.N ~.z n.o.i.n > 7.> p.8.q.0.<.r.s.K ~.*             ",
"          &.~.&.t.k b.7.k.u.k v.:.2.< l c l w.@.T S             ",
"        B 5 x.x y.z.Z f.A.*.B.^ 9.; 2.C.q.Z k.!.G 5 j           ",
"        D.5 6 n T P *.E.F.F.G.8 / H.2.i.p I.& y.h O D f         ",
"      [.I S & . J.6.k *._.K.L.. M.M L B.l.r V @ 9 O c.O         ",
"    A.S D x _ G.N.!.B n i.O.i.P.).Q.R.E j S.T.U.M.D 5 O 7 V.    ",
"    R ~.t.x._ 9 9 e./.c.6.R D.I '.& !.W.X.Y.Y.M.Z.C I y.x v.    ",
"    m.H H s.`._ G.'  +P.N.+ .+W..+] {.M T.Y.d.{ X X '.w u.      ",
"          - J.: -.-.-.L.+ }.++4 W.@+A #+$+#+%+@.'.P.C           ",
"          U.`.}.{.+ ` {.W.&+9 > 4 | | &+`.^.C /.*+=+w.          ",
"          X.-+%.M.M.%+W ++5.h h 4 ;+C M.>+Z.P.P.^.,+'+^.)+      ",
"      H.% M.J S.#+$+%+$.J.5.#.!+: n M M.M.Z.'.S.Y.~+e *+{+{.    ",
"    ]+-.M.^+{./+%.>+%+#+_ N.K .+ +_ Z..+@+(+`.}._._+H.*+`._.:+  ",
"  ~+S.M.J #+}.] %.{+%++ <+5.b @+/+/+= /+$+M }.[+>.q ~+W S.(.Z B.",
"}+]+-+Z.W }._+|+M.]+{+1+^ ^ -.++^+++.+W $+` $+V (.1 # E.E.1 E.Z ",
"|+|+E._+(.:+|+2+_+(.% F.~+*.- ) :+3+4+_+>+$+X...B.1 q } }+} } } "};
