/* XPM */
static char * imgpdwn_xpm[] = {
"32 32 260 2",
"  	c None",
". 	c #9D908F",
"+ 	c #6B4C46",
"@ 	c #79635C",
"# 	c #7E6A68",
"$ 	c #590B02",
"% 	c #580B03",
"& 	c #580B02",
"* 	c #705853",
"= 	c #653A37",
"- 	c #560900",
"; 	c #590A01",
"> 	c #520B02",
", 	c #693A1C",
"' 	c #561D09",
") 	c #7D390C",
"! 	c #793E08",
"~ 	c #7D3A0E",
"{ 	c #823E0B",
"] 	c #803B0B",
"^ 	c #7D3B0C",
"/ 	c #6E3304",
"( 	c #723F1E",
"_ 	c #DCD6D4",
": 	c #5A0B02",
"< 	c #580A01",
"[ 	c #4F0A03",
"} 	c #4F170B",
"| 	c #79401C",
"1 	c #AE3D0D",
"2 	c #9B3103",
"3 	c #6A2C07",
"4 	c #5E2307",
"5 	c #6B2A06",
"6 	c #6F2B06",
"7 	c #692704",
"8 	c #5A1C07",
"9 	c #5D2307",
"0 	c #813C04",
"a 	c #A5390B",
"b 	c #773010",
"c 	c #570B02",
"d 	c #7D6A5F",
"e 	c #6E2F0C",
"f 	c #BE350B",
"g 	c #953002",
"h 	c #5C1E06",
"i 	c #571003",
"j 	c #500B02",
"k 	c #5A0C02",
"l 	c #581102",
"m 	c #581002",
"n 	c #591003",
"o 	c #591403",
"p 	c #5D1E02",
"q 	c #8A3303",
"r 	c #C52E05",
"s 	c #8B310E",
"t 	c #501008",
"u 	c #5C2620",
"v 	c #5A0A01",
"w 	c #54241B",
"x 	c #B4380F",
"y 	c #B52E01",
"z 	c #652502",
"A 	c #521303",
"B 	c #99926E",
"C 	c #4E3325",
"D 	c #520C02",
"E 	c #490B02",
"F 	c #4C2217",
"G 	c #988E70",
"H 	c #4C190B",
"I 	c #642202",
"J 	c #AB3602",
"K 	c #C52E07",
"L 	c #6F2E0F",
"M 	c #550A02",
"N 	c #685248",
"O 	c #4E0801",
"P 	c #520902",
"Q 	c #CC2702",
"R 	c #A22F01",
"S 	c #5A1503",
"T 	c #796A46",
"U 	c #989062",
"V 	c #8E845F",
"W 	c #2F0B05",
"X 	c #160803",
"Y 	c #150705",
"Z 	c #918968",
"` 	c #A39B74",
" .	c #766A50",
"..	c #591303",
"+.	c #9E2F01",
"@.	c #CD2401",
"#.	c #B03912",
"$.	c #570C02",
"%.	c #E5E3E2",
"&.	c #591106",
"*.	c #5B1E14",
"=.	c #A89983",
"-.	c #A84621",
";.	c #A12E01",
">.	c #591102",
",.	c #66553D",
"'.	c #040303",
").	c #585439",
"!.	c #030104",
"~.	c #020004",
"{.	c #020106",
"].	c #837D5D",
"^.	c #4A3A27",
"/.	c #9F3104",
"(.	c #CB2702",
"_.	c #C72E06",
":.	c #6B4D42",
"<.	c #560A02",
"[.	c #5F2E25",
"}.	c #A83A0D",
"|.	c #BC2C02",
"1.	c #611D01",
"2.	c #500D02",
"3.	c #58240A",
"4.	c #140507",
"5.	c #010204",
"6.	c #010104",
"7.	c #010207",
"8.	c #4F2B16",
"9.	c #5B1A00",
"0.	c #4E0A02",
"a.	c #612203",
"b.	c #B63003",
"c.	c #CA2701",
"d.	c #CB2601",
"e.	c #570A02",
"f.	c #570C03",
"g.	c #B9360A",
"h.	c #BC2A02",
"i.	c #A52C01",
"j.	c #B93304",
"k.	c #692C0B",
"l.	c #301407",
"m.	c #2A1105",
"n.	c #250C03",
"o.	c #8E3A11",
"p.	c #BE2C02",
"q.	c #A22801",
"r.	c #B52E02",
"s.	c #B6A098",
"t.	c #745850",
"u.	c #5D2110",
"v.	c #C73108",
"w.	c #CC2602",
"x.	c #C63207",
"y.	c #C43609",
"z.	c #BF3B0C",
"A.	c #CB2902",
"B.	c #8E4F41",
"C.	c #59150F",
"D.	c #580700",
"E.	c #5A1E19",
"F.	c #5D260D",
"G.	c #C73107",
"H.	c #CD2501",
"I.	c #CC2601",
"J.	c #7B2E09",
"K.	c #775C52",
"L.	c #581507",
"M.	c #BA3609",
"N.	c #C92C05",
"O.	c #89300A",
"P.	c #92350E",
"Q.	c #CC2501",
"R.	c #C72C06",
"S.	c #612609",
"T.	c #9E3B0F",
"U.	c #C43208",
"V.	c #823610",
"W.	c #A43811",
"X.	c #580A02",
"Y.	c #570D03",
"Z.	c #602D0F",
"`.	c #93370B",
" +	c #CB2803",
".+	c #B02D04",
"++	c #C42B02",
"@+	c #963510",
"#+	c #723A14",
"$+	c #580800",
"%+	c #B53D11",
"&+	c #A83202",
"*+	c #C22F04",
"=+	c #C63007",
"-+	c #5F2609",
";+	c #C52801",
">+	c #C12B01",
",+	c #8F2E09",
"'+	c #AD3A11",
")+	c #C03609",
"!+	c #F2F1F1",
"~+	c #BE360A",
"{+	c #BA3810",
"]+	c #CB2501",
"^+	c #CE2301",
"/+	c #AF330B",
"(+	c #8C3C16",
"_+	c #713819",
":+	c #BD2B04",
"<+	c #C12802",
"[+	c #AA360D",
"}+	c #AA3307",
"|+	c #BC3101",
"1+	c #552514",
"2+	c #4F2515",
"3+	c #BB380F",
"4+	c #A53710",
"5+	c #572E1D",
"6+	c #7D3C17",
"7+	c #500A02",
"8+	c #90310C",
"9+	c #C82E06",
"0+	c #6C280B",
"a+	c #550B03",
"b+	c #5A1C06",
"c+	c #B1380D",
"d+	c #BD3100",
"e+	c #500B03",
"f+	c #682F0D",
"g+	c #B1390F",
"h+	c #510B02",
"i+	c #6B290B",
"j+	c #C83108",
"k+	c #510B03",
"l+	c #6D3615",
"m+	c #AA360A",
"n+	c #540D02",
"o+	c #BC370F",
"p+	c #540B03",
"q+	c #9A9174",
"r+	c #866641",
"s+	c #530B03",
"t+	c #530A02",
"u+	c #B7350A",
"v+	c #520B03",
"w+	c #B5B787",
"x+	c #400800",
"y+	c #570B03",
"z+	c #550B02",
"A+	c #520C03",
"B+	c #943E04",
"C+	c #B25645",
"D+	c #480C04",
"E+	c #380B06",
"F+	c #521205",
"G+	c #4D0F03",
"H+	c #3F0C07",
"I+	c #460C02",
"J+	c #8B856D",
"K+	c #51150C",
"                                                                ",
"                  . + @                                         ",
"                # $ % & *                   = -                 ",
"                ; > , ' ) ! ~ { ] ^ / ( _   : : <               ",
"                [ } | 1 2 3 4 5 6 7 8 9 0 a b c :               ",
"          d     $ e f g h i j k l m n o p q r s t &             ",
"        u : v   w x y z A B C c D E F G H I J K L M     N       ",
"        : O P     Q R S T U V W X Y Z `  ...+.@.#.$.%.&.: *.    ",
"        : P $ =.-.@.;.>.,.'.).!.~.{.].'.^.m /.(._.:.  <.& :     ",
"        : : : [.}.@.|.1.2.3.4.5.6.7.8.9.0.a.b.c.d.    e.e.:     ",
"        : : : f.g.@.@.h.i.j.k.l.m.n.o.p.q.r.@.@.@.s.t.: : :     ",
"        : : : u.v.@.@.@.@.@.w.x.y.z.A.@.@.@.@.@.@.B.C.: : D.    ",
"        E.: : F.G.@.@.@.@.@.@.H.I.@.@.@.@.@.@.@.@.J.: : : K.    ",
"          : : L.M.@.@.@.@.@.N.O.P.@.@.@.@.@.@.Q.R.S.: : $       ",
"          : : & T.@.@.@.@.@.U.'.V.@.@.@.@.@.@.@.W.X.: :         ",
"            Y.Z.`. +@.@.@.@.I..+++@.@.@.@.@.(.@+#+$ : $+        ",
"              %+@.@.@.@.@.@.@.@.@.@.@.@.@.@.&+*+=+-+v           ",
"              @.@.@.@.@.@.@.@.@.@.@.@.@.@.;+>+@.@.,+            ",
"            '+@.@.@.@.@.@.@.@.@.@.@.@.@.@.@.@.@.@.              ",
"            )+@.@.@.@.@.@.@.@.@.@.@.@.@.@.@.@.@.@.              ",
"          !+~+@.@.@.@.@.@.@.@.@.@.@.@.@.@.@.@.@.@.              ",
"            {+]+^+@.@.@.@.@.@.@.@.@.@.@.@.@.@.@.w.              ",
"            /+(+_+:+@.<+[+}+@.@.@.@.@.@.@.@.@.@.|+              ",
"              1+2+3+@.4+5+6+@.@.@.@.@.@.@.@.@.@.                ",
"              c 7+8+9+0+a+b+c+@.@.@.@.@.@.@.@.d+                ",
"            & : e+f+g+M h+: i+j+@.@.@.@.@.@.                    ",
"            $ : k+l+m+M : : n+o+@.@.@.@.@.                      ",
"            $ : p+q+r+s+: & t+u+@.@.@.H.                        ",
"            e+v+p+w+  x+y+z+A+B+C+                              ",
"            D+E+F+    G+H+I+J+                                  ",
"                        K+                                      ",
"                                                                "};
