/* XPM */
static char *_36ae265388e4ae8e9e27749c4ba39acsY3KHivx9PURg02b[] = {
/* columns rows colors chars-per-pixel */
"32 32 122 2 ",
"   c None",
".  c #0E0A07",
"X  c #050908",
"o  c #0C0809",
"O  c #19100F",
"+  c #0F0E13",
"@  c #300701",
"#  c #3C0502",
"$  c #370802",
"%  c #3C0A03",
"&  c #29100C",
"*  c #3F1008",
"=  c #231413",
"-  c #440702",
";  c #4E0703",
":  c #440B02",
">  c #4C0A02",
",  c #530B01",
"<  c #5A0B02",
"1  c #421009",
"2  c #4C150E",
"3  c #541306",
"4  c #5D1102",
"5  c #591508",
"6  c #451717",
"7  c #451A14",
"8  c #4A1914",
"9  c #551E19",
"0  c #620D03",
"q  c #6D0F03",
"w  c #641201",
"e  c #6B1402",
"r  c #651A05",
"t  c #641808",
"y  c #741402",
"u  c #7A1502",
"i  c #7D1804",
"p  c #78170E",
"a  c #52211D",
"s  c #77200D",
"d  c #682011",
"f  c #61291A",
"g  c #4D2726",
"h  c #472825",
"j  c #512620",
"k  c #532A24",
"l  c #502D2B",
"z  c #513027",
"x  c #5C3D39",
"c  c #7A3A21",
"v  c #603D39",
"b  c #4E4A4B",
"n  c #524C4C",
"m  c #594B48",
"M  c #7A6B54",
"N  c #851703",
"B  c #8D1503",
"V  c #831803",
"C  c #8D1901",
"Z  c #931A01",
"A  c #9B1C02",
"S  c #921D09",
"D  c #A31B03",
"F  c #AE1F00",
"G  c #B31E02",
"H  c #99220A",
"J  c #94280E",
"K  c #872D15",
"L  c #8A2E19",
"P  c #98321C",
"I  c #AC2101",
"U  c #B42100",
"Y  c #BC2101",
"T  c #8E3827",
"R  c #89352A",
"E  c #C71F04",
"W  c #C32202",
"Q  c #CD2401",
"!  c #D22602",
"~  c #D12501",
"^  c #D72500",
"/  c #D72501",
"(  c #D72700",
")  c #D62601",
"_  c #D52402",
"`  c #D72403",
"'  c #D62503",
"]  c #D22304",
"[  c #D22505",
"{  c #D32604",
"}  c #D22401",
"|  c #D92500",
" . c #D82600",
".. c #DA2700",
"X. c #DA2601",
"o. c #D92502",
"O. c #D82602",
"+. c #DF2500",
"@. c #DC2600",
"#. c #DC2601",
"$. c #DF2701",
"%. c #DC2503",
"&. c #DE2602",
"*. c #DF2703",
"=. c #DC2304",
"-. c #D82705",
";. c #DA2602",
":. c #D82800",
">. c #DB2800",
",. c #DC2801",
"<. c #E12500",
"1. c #824832",
"2. c #824E36",
"3. c #854D3C",
"4. c #8D5548",
"5. c #A47557",
"6. c #998564",
"7. c #94866B",
"8. c #A48A6F",
"9. c #A39A7D",
"0. c #B2A988",
"q. c #B7A88B",
/* pixels */
"                    a , < ,                                     ",
"                  : 0 , : < k                                   ",
"                  < ; y u , 3 J D H P                           ",
"                  < > Q B # u #.O.%.<.>.O.G   l 0 ,             ",
"                  < , Q W G ! Q U I U W Q >.W > > , v           ",
"                    , W _ { Z : 4 e e e i D O.C u < <           ",
"                    i [ ! C < < r e e t r : V O.%.Z > ,         ",
"                  <._ ! I < 2.8.w e e e q 4 4 I o.D > ,         ",
"                  _ Q _ Z 0 7.o c q w 0 3.0.t N o.V -           ",
"                } Q ! ! C 0 6.9.p C Z y M X 1.u Q Q f           ",
"                o.} Q ! G e s K 4.9 5 B 5.q.r N ! +.T           ",
"                =.Q Q Q [ Q E 6 b = O & S y e G ! O.L           ",
"                  ! Q Q Q ] ! * . O O + C } E Q Q >.            ",
"                    W _ Q Q ! Y V p 3 5 W } ! Q Q -.            ",
"                    N D Q [ Q { Q Q -.O.} Q Q Q Q O.            ",
"                G C #.I Z Q Q ! D w ! Q Q } Q Q ! Z %           ",
"              w y 0 E _ G G ! Q ! Q Q Q Q Q Q Q Q Y e :         ",
"            G , > w < G _ Q Q Q } Q Q Q Q Q Q Q } =.N , x       ",
"            q , < , > G } Q Q Q Q Q Q Q Q Q Q Q Q _ Z > ,       ",
"            # < < , > G ! Q Q Q Q Q Q Q Q Q Q Q Q -.C > <       ",
"          z < , , , 4 ! Q } Q Q Q Q Q Q Q Q Q ! } _ i > <       ",
"          > 0 , < - A _ Q Q Q Q Q } Q Q Q Q Q Q } } , , ,       ",
"          7 < < > y _ Q Q Q Q ! Q Q Q ! Q Q Q } #.R   m         ",
"            g h t ,.! Q Q Q Q Q Q Q Q Q Q Q Q O.Z               ",
"                  Z >.-.Q Q Q Q Q Q Q Q _ >.! V                 ",
"                      A E { O.O._ O.>.Q W S                     ",
"                        > 0 u V N u w ,                         ",
"                      2 < , > $ @ > ; < j                       ",
"                      x < < < < > > < , >                       ",
"                        > < , < , # 0 0 8                       ",
"                          > 0 , 1 n                             ",
"                                                                "
};
