/* XPM */
static char *dbb31f89039b479bdf3bbcd57f768ce7J1DFfHsmWDrgcaQQ[] = {
/* columns rows colors chars-per-pixel */
"32 32 229 2 ",
"   c None",
".  c #160E04",
"X  c #160702",
"o  c #001A00",
"O  c #121403",
"+  c #1C1205",
"@  c #1B1C05",
"#  c #171F09",
"$  c #050101",
"%  c #2A0C03",
"&  c #261705",
"*  c #351805",
"=  c #012803",
"-  c #1E2B04",
";  c #122506",
":  c #063B04",
">  c #1F3506",
",  c #272708",
"<  c #352B0C",
"1  c #3E2C0C",
"2  c #372508",
"3  c #26310D",
"4  c #38360A",
"5  c #272E13",
"6  c #2A3114",
"7  c #373412",
"8  c #3B2D15",
"9  c #4E1B04",
"0  c #421A07",
"q  c #561405",
"w  c #452D09",
"e  c #47260A",
"r  c #592609",
"t  c #48350C",
"y  c #54340C",
"u  c #553A05",
"i  c #473714",
"p  c #5A3C15",
"a  c #563A14",
"s  c #753913",
"d  c #6E2F11",
"f  c #473823",
"g  c #6C3D22",
"h  c #074506",
"j  c #154408",
"k  c #095807",
"l  c #145709",
"z  c #185213",
"x  c #285D07",
"c  c #3C5507",
"v  c #364718",
"b  c #254E0D",
"n  c #106314",
"m  c #0F6610",
"M  c #3D6E05",
"N  c #227305",
"B  c #397808",
"V  c #226F12",
"C  c #286D0A",
"Z  c #2E4721",
"A  c #4B460A",
"S  c #55450A",
"D  c #5F5F00",
"F  c #414213",
"G  c #4D4114",
"H  c #4B4D18",
"J  c #594718",
"K  c #405B15",
"L  c #595615",
"P  c #4B5009",
"I  c #6B470A",
"U  c #6B4C13",
"Y  c #6A4D1B",
"T  c #644615",
"R  c #744816",
"E  c #655319",
"W  c #6B5818",
"Q  c #725819",
"!  c #6D520A",
"~  c #416B1D",
"^  c #497C17",
"/  c #4C6D0B",
"(  c #6A6119",
")  c #7A651F",
"_  c #627413",
"`  c #7B7B0E",
"'  c #4A4626",
"]  c #5A5422",
"[  c #4F4530",
"{  c #6A5C23",
"}  c #725C20",
"|  c #71573C",
" . c #6F4924",
".. c #50662A",
"X. c #686628",
"o. c #7A6423",
"O. c #756426",
"+. c #676435",
"@. c #776A38",
"#. c #6D712D",
"$. c #775740",
"%. c #6E6247",
"&. c #7F7653",
"*. c #8E2501",
"=. c #80511B",
"-. c #9D6703",
";. c #87681A",
":. c #936E14",
">. c #AC6C07",
",. c #B4750B",
"<. c #875720",
"1. c #896721",
"2. c #8A7628",
"3. c #977929",
"4. c #877A39",
"5. c #8C6E3B",
"6. c #917E5F",
"7. c #189800",
"8. c #229F1D",
"9. c #2C8312",
"0. c #1D8924",
"q. c #2D9729",
"w. c #378934",
"e. c #3C8E25",
"r. c #2DAE37",
"t. c #408710",
"y. c #5A8717",
"u. c #469716",
"i. c #529513",
"p. c #678B09",
"a. c #769908",
"s. c #759B12",
"d. c #6F8B0E",
"f. c #59B61A",
"g. c #4FA60F",
"h. c #6FA010",
"j. c #68B817",
"k. c #72A415",
"l. c #569D29",
"z. c #4E9D2D",
"x. c #759F27",
"c. c #7B8635",
"v. c #4BAF31",
"b. c #54B535",
"n. c #79A429",
"m. c #77A537",
"M. c #78B93A",
"N. c #66AC31",
"B. c #6FC034",
"V. c #3CAB48",
"C. c #47994C",
"Z. c #4CAF50",
"A. c #6EB650",
"S. c #769471",
"D. c #4EA176",
"F. c #75AE64",
"G. c #53C45B",
"H. c #7EC544",
"J. c #69D553",
"K. c #75C966",
"L. c #75CD7E",
"P. c #8C9B1B",
"I. c #959719",
"U. c #8B8E04",
"Y. c #B18E10",
"T. c #9FB917",
"R. c #B3B41C",
"E. c #819028",
"W. c #A2862D",
"Q. c #95A829",
"!. c #86AC25",
"~. c #AFB72D",
"^. c #C89C13",
"/. c #C7A915",
"(. c #DDBE17",
"). c #D0A714",
"_. c #E2AB0F",
"`. c #8AC727",
"'. c #ECC51E",
"]. c #8E8E46",
"[. c #99A64A",
"{. c #91A757",
"}. c #8CB548",
"|. c #A0A045",
" X c #9A9367",
".X c #86B871",
"XX c #A1B862",
"oX c #D0AF52",
"OX c #C6BC4B",
"+X c #C1A66A",
"@X c #94C955",
"#X c #91C349",
"$X c #81C66C",
"%X c #82CC75",
"&X c #98D16A",
"*X c #ACD36B",
"=X c #B2DB75",
"-X c #BADC7A",
";X c #AED66F",
":X c #C4DC7B",
">X c #C9B19F",
",X c #91CD90",
"<X c #BCDA86",
"1X c #B0CB90",
"2X c #BAD792",
"3X c #A4D582",
"4X c #BCE38A",
"5X c #BDE89A",
"6X c #95CFA2",
"7X c #B5D7AB",
"8X c #BEE3A4",
"9X c #AFECB9",
"0X c #C7DF88",
"qX c #CAD588",
"wX c #C4E48C",
"eX c #CBE78F",
"rX c #C2EA87",
"tX c #C4E493",
"yX c #C2EB9B",
"uX c #C7E598",
"iX c #D9E28A",
"pX c #E7E995",
"aX c #C7D2A3",
"sX c #CBEBA3",
"dX c #D7E8A8",
"fX c #D3E9B9",
"gX c #E5F5C6",
"hX c white",
"jX c #EDEAE4",
/* pixels */
"                                                                ",
"                                                                ",
"                                                                ",
"                                                                ",
"                                  ,.Y.                          ",
"                                oX>.-.+X    tX8X                ",
"                    A.N.          ,.S @.  ;X`.f.K.  G.J.        ",
"                  }.a.a.r.9X    jX5.& i aX#XC h 0.G.f.j.H.      ",
"                  ~.(./.e.r.7.%X  7X^ x F.e.: = k p.M u.B.      ",
"                  OX'.'.I.a.7.K.  Z.V l Z.B = : k c c a.`.      ",
"                    /.^.).^.h.L.  w.j ; ^ > , B l P -.I.dX      ",
"                  x.Y.I :._.R.G.9XS.- @ 4 5 4 A P b D P.        ",
"    3Xq.V.        B ,.T w /.T.v.aX%.{ ' ' H % A e.: n K *.      ",
"  *XI.^ b.fX      q.t.F  .E _ e $.] 2.].@.4 v Z.Z.0.n M ,.      ",
"  M.I.P.}.5X  6X,XG.0.~ R R Y  .J ( ) O.X.v D.Z.7X.Xd.i.2X      ",
"  @XQ.l.b.&X.Xw.n v.8.m y <.R +.Y ! Q } { H C.u.B.P.U./ z.d.m.  ",
"    @X^ V m.v.z : A.2X,Xf w a W 1.G J ) Q < / j.g.9.x h V ` n.  ",
"    &XN.K # - ; j ,X     .% Y W.1.E Q o.W 8 ~ N / l j j h B }.  ",
"    n.` L O * T t 6.  >X*.q J ;.Y W o.U t . 5 o @ * 4 j k l.    ",
"      m._ L 2 J ] A i f % % W W W 1.2.T + # < t r 0 j l / h.8X  ",
"      XX_ ! ( & G X.O.1 $ 1 O.] E ;.o.} 1 H E a < z k.k.P.U.1X  ",
"        d.E.{.| 8 L @.p + p 4.#.L y J Y 6 J 1 j k y.T.!.x.[.    ",
"            d s f % J y - { #.v 5 < 7 , v < 7 = - Q.#X$X        ",
"            d r 9 | [ * 1 J 5 e y w < @ , O  Xe 7 %X$X          ",
"                d     X t 2 r e * e w # v F                     ",
"                      * 1 & r e r e + O ' i                     ",
"                    J R w + y s d e % < +.v                     ",
"                    u 1.U 2 , & & + . Q 4.G   hX                ",
"                  6.;.:.y S G & @ & 4 ) W.u +.                  ",
"                  t :.2.X.#.( } O.c.{.{.|.[.].fX                ",
"              gXqXXX<XtXyX=X*X0XwXrX5XyXwXrX5X<X:XeXdX          ",
"                                                                "
};
