/* XPM */
static char * imgc_xpm[] = {
"32 32 374 2",
"  	c None",
". 	c #352A0A",
"+ 	c #513900",
"@ 	c #523700",
"# 	c #523900",
"$ 	c #30270B",
"% 	c #321800",
"& 	c #9D7717",
"* 	c #C99D20",
"= 	c #E7B725",
"- 	c #F8C926",
"; 	c #FFD01F",
"> 	c #FED124",
", 	c #FFD127",
"' 	c #FECD28",
") 	c #FFCB24",
"! 	c #F6C32B",
"~ 	c #E3B227",
"{ 	c #C4991E",
"] 	c #977413",
"^ 	c #332604",
"/ 	c #010100",
"( 	c #B17713",
"_ 	c #F7AD20",
": 	c #FFC82B",
"< 	c #FFC92B",
"[ 	c #FFD320",
"} 	c #FFDB10",
"| 	c #FFDA0E",
"1 	c #FEE47D",
"2 	c #FFF1A9",
"3 	c #FEF1A9",
"4 	c #FFDD3E",
"5 	c #FEDE57",
"6 	c #FEDB61",
"7 	c #FFD221",
"8 	c #F8C528",
"9 	c #C89D24",
"0 	c #503B05",
"a 	c #2D1504",
"b 	c #BD7A33",
"c 	c #FFAF19",
"d 	c #FFB31C",
"e 	c #FFC625",
"f 	c #FEC81D",
"g 	c #FED709",
"h 	c #FFD706",
"i 	c #FFD603",
"j 	c #FFDD51",
"k 	c #FED937",
"l 	c #FEDB4A",
"m 	c #FEE163",
"n 	c #FFDA0B",
"o 	c #FFDB13",
"p 	c #F9C543",
"q 	c #C38A4B",
"r 	c #331E0D",
"s 	c #6A4925",
"t 	c #EA9751",
"u 	c #F2A042",
"v 	c #FBAB41",
"w 	c #FFB010",
"x 	c #FFC412",
"y 	c #FED00C",
"z 	c #FFD309",
"A 	c #FFD30A",
"B 	c #FFD10A",
"C 	c #FFD607",
"D 	c #FFCE0D",
"E 	c #FFC810",
"F 	c #FEC516",
"G 	c #FFC623",
"H 	c #FECD68",
"I 	c #F8C69A",
"J 	c #855837",
"K 	c #4B280F",
"L 	c #9E5B2B",
"M 	c #C0753C",
"N 	c #D17B45",
"O 	c #F1A524",
"P 	c #FEC212",
"Q 	c #FEBA0F",
"R 	c #FFC111",
"S 	c #FECC0E",
"T 	c #FEC611",
"U 	c #FEC111",
"V 	c #EDAF5C",
"W 	c #DDA179",
"X 	c #C68046",
"Y 	c #A35A2F",
"Z 	c #703411",
"` 	c #5A3316",
" .	c #914C22",
"..	c #AD5F2C",
"+.	c #B56732",
"@.	c #D58B24",
"#.	c #FEB20D",
"$.	c #FDAB1A",
"%.	c #C07A1E",
"&.	c #BF7D1A",
"*.	c #F2B33F",
"=.	c #FFBF36",
"-.	c #FDBB17",
";.	c #FEC312",
">.	c #FEBD10",
",.	c #F3A32B",
"'.	c #C67844",
").	c #A75523",
"!.	c #994712",
"~.	c #9A4713",
"{.	c #833B12",
"].	c #5D3110",
"^.	c #7B4117",
"/.	c #AB5D2B",
"(.	c #B06330",
"_.	c #C37E2A",
":.	c #F3A017",
"<.	c #F0A849",
"[.	c #C27540",
"}.	c #BF723E",
"|.	c #B0663B",
"1.	c #AE6032",
"2.	c #A65B2E",
"3.	c #B16D2F",
"4.	c #FCAC14",
"5.	c #FEC211",
"6.	c #FFAE0B",
"7.	c #E79C4D",
"8.	c #D48752",
"9.	c #AF5B2A",
"0.	c #9B4814",
"a.	c #8F4417",
"b.	c #683D1B",
"c.	c #6A3A12",
"d.	c #9B5323",
"e.	c #B5642C",
"f.	c #BF7B22",
"g.	c #F19D18",
"h.	c #D69953",
"i.	c #AF6330",
"j.	c #B96938",
"k.	c #E79630",
"l.	c #FAA510",
"m.	c #F3A01D",
"n.	c #D4955A",
"o.	c #B86730",
"p.	c #AA5825",
"q.	c #843C0F",
"r.	c #2C170F",
"s.	c #724625",
"t.	c #773F13",
"u.	c #AF5E27",
"v.	c #A95E2A",
"w.	c #C18131",
"x.	c #BC773C",
"y.	c #A45D36",
"z.	c #B2642F",
"A.	c #B66730",
"B.	c #A86C33",
"C.	c #E69A32",
"D.	c #E1A257",
"E.	c #AF6531",
"F.	c #A3511D",
"G.	c #884012",
"H.	c #9B4E1F",
"I.	c #2B0600",
"J.	c #6B3A12",
"K.	c #904813",
"L.	c #AC5C25",
"M.	c #AD6232",
"N.	c #A96033",
"O.	c #B4642C",
"P.	c #A26238",
"Q.	c #9E5E35",
"R.	c #9E6537",
"S.	c #A46133",
"T.	c #A85B29",
"U.	c #A9561B",
"V.	c #9A4813",
"W.	c #853F11",
"X.	c #974C1E",
"Y.	c #A95522",
"Z.	c #33170A",
"`.	c #834212",
" +	c #8C4613",
".+	c #9C4F17",
"++	c #AB5920",
"@+	c #AD5C25",
"#+	c #9E5A32",
"$+	c #B05E27",
"%+	c #B05F26",
"&+	c #A55E2E",
"*+	c #9C5A2F",
"=+	c #97532A",
"-+	c #945229",
";+	c #965328",
">+	c #A4531B",
",+	c #9E4F16",
"'+	c #823E13",
")+	c #9E4F20",
"!+	c #AC5826",
"~+	c #BB5E2D",
"{+	c #000102",
"]+	c #5B3316",
"^+	c #773E12",
"/+	c #964E1B",
"(+	c #9B511E",
"_+	c #934B17",
":+	c #994C15",
"<+	c #944F23",
"[+	c #A1541F",
"}+	c #A65217",
"|+	c #92562B",
"1+	c #975226",
"2+	c #944F25",
"3+	c #8F5029",
"4+	c #8F4D21",
"5+	c #904915",
"6+	c #9E531F",
"7+	c #A75524",
"8+	c #B35C2A",
"9+	c #BE622F",
"0+	c #B0592B",
"a+	c #4B270C",
"b+	c #8E4C24",
"c+	c #B4632C",
"d+	c #AB5D27",
"e+	c #985324",
"f+	c #814822",
"g+	c #8A4719",
"h+	c #824D27",
"i+	c #794622",
"j+	c #7C4825",
"k+	c #8A522D",
"l+	c #A55B29",
"m+	c #B4632B",
"n+	c #B8652E",
"o+	c #BC612E",
"p+	c #BF6330",
"q+	c #9D5027",
"r+	c #301504",
"s+	c #703D15",
"t+	c #A0552B",
"u+	c #AA5D2B",
"v+	c #BB6A32",
"w+	c #C27137",
"x+	c #C06F35",
"y+	c #AC653B",
"z+	c #AB6538",
"A+	c #9D5F39",
"B+	c #A45D35",
"C+	c #B16634",
"D+	c #BA6931",
"E+	c #BF6E35",
"F+	c #C57339",
"G+	c #C16934",
"H+	c #773B1D",
"I+	c #0B0604",
"J+	c #633714",
"K+	c #774019",
"L+	c #A1562B",
"M+	c #B6662F",
"N+	c #C6743A",
"O+	c #C0723D",
"P+	c #B4693F",
"Q+	c #B76D3F",
"R+	c #BF713D",
"S+	c #C57239",
"T+	c #C66F3D",
"U+	c #BA5F2E",
"V+	c #2B0D03",
"W+	c #4B2B16",
"X+	c #6E3C15",
"Y+	c #A1552B",
"Z+	c #AE6031",
"`+	c #BE703D",
" @	c #B2683F",
".@	c #C3733B",
"+@	c #C9783F",
"@@	c #CD7E47",
"#@	c #CB7B43",
"$@	c #D58752",
"%@	c #DA8F59",
"&@	c #C16633",
"*@	c #964C25",
"=@	c #0E0402",
"-@	c #603410",
";@	c #955027",
">@	c #A65930",
",@	c #BF6D39",
"'@	c #C7763C",
")@	c #D58952",
"!@	c #DC915A",
"~@	c #CE7D4A",
"{@	c #C6703D",
"]@	c #C26835",
"^@	c #BC602E",
"/@	c #3A1607",
"(@	c #30190B",
"_@	c #79411B",
":@	c #A0562B",
"<@	c #B36137",
"[@	c #C16F39",
"}@	c #CC7B43",
"|@	c #DB9059",
"1@	c #C7723F",
"2@	c #7F3D1C",
"3@	c #41210C",
"4@	c #8B4A23",
"5@	c #A75A30",
"6@	c #B56238",
"7@	c #C16E39",
"8@	c #CE7E47",
"9@	c #CD7C47",
"0@	c #CB7845",
"a@	c #C16835",
"b@	c #9E4E25",
"c@	c #693510",
"d@	c #894A22",
"e@	c #9F552B",
"f@	c #A85A31",
"g@	c #B46137",
"h@	c #BD6B39",
"i@	c #C5743A",
"j@	c #C47038",
"k@	c #C16732",
"l@	c #BB612E",
"m@	c #AA5929",
"n@	c #010000",
"o@	c #5D3217",
"p@	c #6F3812",
"q@	c #6D3B16",
"r@	c #874821",
"s@	c #934E27",
"t@	c #9E532D",
"u@	c #A5532D",
"v@	c #AE592C",
"w@	c #B55D2B",
"x@	c #AB5727",
"y@	c #984D1F",
"z@	c #965224",
"A@	c #925126",
"B@	c #1B1009",
"C@	c #5B3010",
"D@	c #8F4714",
"E@	c #884412",
"F@	c #753C11",
"G@	c #66350F",
"H@	c #62340D",
"I@	c #65330D",
"J@	c #86573A",
"K@	c #9B6440",
"L@	c #A25927",
"M@	c #8D481B",
"N@	c #381A0C",
"O@	c #080401",
"P@	c #4B2713",
"Q@	c #7A3C13",
"R@	c #944915",
"S@	c #9A4C15",
"T@	c #9B4D16",
"U@	c #9D511C",
"V@	c #A96130",
"W@	c #B78564",
"X@	c #976142",
"Y@	c #652F13",
"Z@	c #280F05",
"`@	c #190A03",
" #	c #452514",
".#	c #4D2507",
"+#	c #582A09",
"@#	c #512209",
"##	c #401C0E",
"$#	c #100502",
"                                                                ",
"                                                                ",
"                                                                ",
"                                                                ",
"                          . + @ # $                             ",
"                % & * = - ; > , ' ) ! ~ { ] ^                   ",
"            / ( _ : < [ } | | 1 2 3 4 5 6 7 8 9 0               ",
"          a b c d e f g h h h i j k h l m n o < p q r           ",
"          s t u v w x y z z A B z C h h D E F G H I J           ",
"          K L M N O x P Q R x x x x S y T U V W X Y Z           ",
"          `  ...+.@.#.$.%.&.*.=.-.R ;.x >.,.'.).!.~.{.          ",
"          ].^./.(._.:.<.[.}.|.1.2.3.4.5.6.7.8.9.0.~.a.          ",
"          b.c.d.e.f.g.h.i.e.e.e.e.j.k.l.m.n.o.p.~.~.q.r.        ",
"          s.c.t.u.v.w.x.y.z.e.e.e.A.B.C.D.E.e.F.~.G.H.I.        ",
"          b.c.J.K.L.e.e.M.N.e.e.O.P.Q.R.S.T.U.V.W.X.Y.Z.        ",
"          ].c.c.`. +.+++@+#+$+%+&+*+=+-+;+>+,+'+)+!+~+{+        ",
"          ]+c.c.^+/+(+_+:+<+[+}+|+1+2+3+4+5+6+7+8+9+0+          ",
"          a+c.c.b+c+e.e.d+e+f+g+h+i+j+k+l+m+n+o+p+p+q+          ",
"          r+c.s+t+u+e.v+w+x+y+z+A+B+C+D+E+F+G+p+p+p+H+          ",
"          I+J+K+t+L+M+N+N+N+O+P+Q+R+N+N+N+S+p+T+p+U+V+          ",
"            W+X+Y+t+Z+N+N+N+N+`+ @.@+@@@#@G+$@%@&@*@            ",
"            =@-@;@t+>@,@N+N+N+N+'@)@!@!@!@~@{@]@^@/@            ",
"              (@_@t+:@<@[@N+N+N+}@!@!@!@|@1@p+p+2@              ",
"                3@4@t+5@6@7@N+N+N+8@9@0@a@p+p+b@                ",
"                  c@d@e@f@g@h@i@j@k@p+p+p+l@m@n@                ",
"                  o@p@q@r@s@t@u@v@w@w@x@y@z@A@                  ",
"                  B@C@D@E@F@G@H@G@I@J@K@L@M@N@                  ",
"                    O@P@Q@R@S@T@U@V@W@X@Y@Z@                    ",
"                        n@`@ #.#+#@###$#                        ",
"                                                                ",
"                                                                ",
"                                                                "};
