/* XPM */
static char * imgpball_xpm[] = {
"32 32 256 2",
"  	c #B2B34B",
". 	c #91902B",
"+ 	c #4D490B",
"@ 	c #954502",
"# 	c #D4D66D",
"$ 	c #A1CEFE",
"% 	c #6F6D29",
"& 	c #71ABEF",
"* 	c #0844AC",
"= 	c #6F4A0D",
"- 	c #4B8E2B",
"; 	c #D4D34E",
"> 	c #B2B12D",
", 	c #2E8B20",
"' 	c #4B3107",
") 	c #91914A",
"! 	c #336FCC",
"~ 	c #6E912A",
"{ 	c #F9D54D",
"] 	c #4E4D26",
"^ 	c #706C0B",
"/ 	c #91B24B",
"( 	c #070501",
"_ 	c #F6D62A",
": 	c #6EB04C",
"< 	c #8E7229",
"[ 	c #8B5421",
"} 	c #F8D86D",
"| 	c #D5D6D4",
"1 	c #918E09",
"2 	c #D6D22B",
"3 	c #2E7225",
"4 	c #2B6E0D",
"5 	c #6D2F06",
"6 	c #D5D78F",
"7 	c #4A7227",
"8 	c #6D4E26",
"9 	c #B3B46B",
"0 	c #D7D209",
"a 	c #B5D26D",
"b 	c #8E6F08",
"c 	c #B7CE4E",
"d 	c #84BDFD",
"e 	c #947049",
"f 	c #AE932B",
"g 	c #B5AF08",
"h 	c #FBB32A",
"i 	c #D2B408",
"j 	c #B19207",
"k 	c #4477CF",
"l 	c #FBF00A",
"m 	c #4F9347",
"n 	c #6FCF5E",
"o 	c #D7F08F",
"p 	c #D67013",
"q 	c #93AD2E",
"r 	c #F5D60C",
"s 	c #8A3201",
"t 	c #D1B62A",
"u 	c #B9BAB4",
"v 	c #6E934A",
"w 	c #FCB44B",
"x 	c #AE9649",
"y 	c #D1B64C",
"z 	c #6EAE2F",
"A 	c #260D03",
"B 	c #D3D3B5",
"C 	c #6F7049",
"D 	c #8FD36D",
"E 	c #4D6E0C",
"F 	c #8C8F8A",
"G 	c #D7F7B3",
"H 	c #DBEE70",
"I 	c #F8B10B",
"J 	c #2E4B0A",
"K 	c #6F706D",
"L 	c #FB9409",
"M 	c #B16F07",
"N 	c #2566BE",
"O 	c #70B46C",
"P 	c #D49106",
"Q 	c #91B46C",
"R 	c #50AE4B",
"S 	c #6A99DC",
"T 	c #F8D98D",
"U 	c #4EAD2D",
"V 	c #323229",
"W 	c #91916D",
"X 	c #D2B995",
"Y 	c #B4D48F",
"Z 	c #488D0E",
"` 	c #B1B291",
" .	c #4A4B46",
"..	c #B7CD2B",
"+.	c #B2F591",
"@.	c #90CF4F",
"#.	c #FA932A",
"$.	c #D0B96B",
"%.	c #B16E2C",
"&.	c #D9EEFE",
"*.	c #6699EE",
"=.	c #D8F8D4",
"-.	c #D4912A",
";.	c #496EB2",
">.	c #92D68D",
",.	c #FCB76E",
"'.	c #718B0E",
").	c #0E6809",
"!.	c #1855BB",
"~.	c #0033A7",
"{.	c #B5FAB3",
"].	c #6A9D91",
"^.	c #0B5004",
"/.	c #BAD0B6",
"(.	c #0F2306",
"_.	c #324725",
":.	c #72906D",
"<.	c #B1F174",
"[.	c #0D2659",
"}.	c #4A0B00",
"|.	c #92B38A",
"1.	c #F8954A",
"2.	c #D9EE51",
"3.	c #493124",
"4.	c #526B3D",
"5.	c #2F4454",
"6.	c #94F28E",
"7.	c #D49049",
"8.	c #31963E",
"9.	c #F4DBAF",
"0.	c #C2DDFF",
"a.	c #75D380",
"b.	c #AF9469",
"c.	c #71544A",
"d.	c #52B369",
"e.	c #97AB0C",
"f.	c #D37642",
"g.	c #91EF70",
"h.	c #B0542D",
"i.	c #6F0B01",
"j.	c #AD988D",
"k.	c #F0DBD4",
"l.	c #2C4E86",
"m.	c #DCEE2A",
"n.	c #96F2AF",
"o.	c #0AF4FC",
"p.	c #D10200",
"q.	c #D69672",
"r.	c #F7976E",
"s.	c #6C3125",
"t.	c #9BDBAB",
"u.	c #B7EE50",
"v.	c #117319",
"w.	c #519366",
"x.	c #DDEE0A",
"y.	c #0E1015",
"z.	c #72AADD",
"A.	c #4BE7FF",
"B.	c #3CAD13",
"C.	c None",
"D.	c #0F2229",
"E.	c #555557",
"F.	c #123F94",
"G.	c #71AD11",
"H.	c #55665C",
"I.	c #3B669A",
"J.	c #3E3340",
"K.	c #87777E",
"L.	c #241122",
"M.	c #1B4E1E",
"N.	c #4B1112",
"O.	c #AA5500",
"P.	c #222200",
"Q.	c #A95511",
"R.	c #FFFFEE",
"S.	c #5588DD",
"T.	c #333311",
"U.	c #382200",
"V.	c #333300",
"W.	c #FFFF44",
"X.	c #4488DD",
"Y.	c #FFFFBB",
"Z.	c #FFFF99",
"`.	c #222214",
" +	c #FFFFDD",
".+	c #FFFFCC",
"++	c #FFFF55",
"@+	c #FFFF88",
"#+	c #FFFFAA",
"$+	c #FFFF33",
"%+	c #FFFF77",
"&+	c #5599DD",
"*+	c #FFFF66",
"=+	c #372213",
"-+	c #FFFF1E",
";+	c #213314",
">+	c #EEEEEE",
",+	c #203300",
"'+	c #EEEE88",
")+	c #EEEE77",
"!+	c #FFEE22",
"~+	c #FFEE88",
"{+	c #FFEE77",
"]+	c #FFEE33",
"^+	c #EEEE66",
"/+	c #5988CA",
"(+	c #FFEE44",
"_+	c #EAFF99",
":+	c #EEEE1A",
"<+	c #EEEE99",
"[+	c #FFEE66",
"}+	c #FFEE99",
"|+	c #EBFF88",
"1+	c #AA4300",
"2+	c #EEFFAA",
"3+	c #EEEEDD",
"4+	c #EEFFFF",
"5+	c #FFEE55",
"6+	c #EEEE55",
"7+	c #EEEE33",
"8+	c #EDFF77",
"9+	c #4488CC",
"0+	c #EEEEAA",
"a+	c #EEFFBB",
"b+	c #EEFFDD",
"c+	c #EEFFCC",
"d+	c #EDFFEE",
"e+	c #EEEE44",
"f+	c #FFEEAA",
"g+	c #EEEECC",
"h+	c #EEEEFF",
"i+	c #C05500",
"j+	c #EEEEBB",
"k+	c #EBFF66",
"l+	c #C45514",
"m+	c #FFEEBB",
"n+	c #FFEECC",
"o+	c #EEFF33",
"p+	c #BF4000",
"q+	c #EEFF44",
"r+	c #FFEEDD",
"s+	c #A7AAA8",
"t+	c #FFEEEE",
"u+	c #99999A",
"v+	c #ECFF55",
"w+	c #A2411C",
"x+	c #EEFF19",
"y+	c #C74116",
"z+	c #5599EE",
"A+	c #70CD42",
"B+	c #99EE55",
"C+	c #E0DDEE",
"D+	c #229188",
"E+	c #11AACC",
"F+	c #AA99AA",
"G+	c #C8BBC0",
"C.C.C.C.C.C.C.C.C.C.C.C.C.C.C.C.C.C.C.C.C.C.C.C.C.C.C.C.C.C.C.C.",
"C.C.C.C.C.C.C.C.C.C.C.C.C.C.C.C.C.C.C.C.C.C.C.C.C.C.C.C.C.C.C.C.",
"C.C.C.C.C.C.C.C.C.C.C.C.C.C.C.C.C.C.C.C.C.C.C.C.C.C.C.C.C.C.C.C.",
"C.C.C.C.C.C.C.C.C.C.C.C.C.C.C.C.C.C.C.C.C.C.C.C.C.C.C.C.C.C.C.C.",
"C.C.C.C.C.C.C.C.C.C.C.C.C.C.>+| G+u u G+| R.C.C.C.C.C.C.C.C.C.C.",
"C.C.C.C.C.C.C.C.C.C.C.C.| s+z.d d d & & & S u >+C.C.C.C.C.C.C.C.",
"C.C.C.C.C.C.C.C.C.C.>+u d d d d d & & & & & & S G+C.C.C.C.C.C.C.",
"C.C.C.C.C.C.C.C.C.>+z.$ 0.0.0.$ & & & & *.*.*.S z.s+C.C.C.C.C.C.",
"R.C.C.C.C.C.C.C.>+z.d 0.h+C.4+0.& & *.*.*.S S &+S.S u C.C.C.C.C.",
"$.C.C.C.C.C.C.C.u d d &.C.C.C.0.& *.S S S &+S.S.S.S.S | C.C.C.C.",
"e 3+C.C.C.C.C.| & d d 0.h+h+0.d S *.S &+&+S.S.S.9+k /+/+C.C.C.C.",
"e g+C.C.C.C.C.s+d $ $ $ $ $ & *.S &+&+S.S.S./+9+k k k /+G+C.C.C.",
"u | C.C.C.C.>+S d 0.&.$ & S S S &+S.S.S.S.9+/+9+k ! ! k u+C.C.C.",
"C.C.C.C.C.C.| & & $ $ & S S &+S.S.S.S.9+k k /+k ! ! ! ! ;.>+C.C.",
"C.C.C.C.C.C.G+& *.S S S S &+S.S.S.S.k k k k /+k ! N N N /+C+C.C.",
"C.C.C.C.C.C.u *.*.S S &+S.S.S.S.9+k k k k k k ! N N N N /+| C.C.",
"C.C.C.C.C.C.u *.S &+&+S.S.S.9+k k k k ! ! k k N N N !.!./+| C.C.",
"C.C.C.C.C.C.G+S &+S.S.S.9+k k k k ! ! ! ! k ! N !.!.!.!.;.>+C.C.",
"C.C.C.C.C.C.| S S.S.S.9+k k k ! ! ! N ! ! ! N !.!.!.* N ;.C.C.C.",
"C.C.C.C.C.C.C./+S.9+k k k k ! ! ! N N N N !.!.!.!.* * ;.F+C.C.C.",
"C.C.C.C.C.C.C.u S k k k ! ! ! N N N N N !.!.!.* * * * ;.| C.C.C.",
"C.C.C.C.C.C.C.>+/+k ! ! ! N N N N !.!.!.!.* * * * * N ].C.C.C.C.",
"C.C.C.C.C.C.C.C.G+S ! ! N N N N !.!.!.!.* * * * * * ;.C+C.C.C.C.",
"C.C.C.C.C.C.C.C.C.s+/+N N N !.!.!.!.* * * * * ~.* I.| C.C.C.C.C.",
"C.C.C.C.C.C.C.C.C.C.s+/+N !.!.!.* * * * * * ~.* I.| C.C.C.C.C.C.",
"C.C.C.C.C.C.C.C.C.C.C.| ;.N !.* * * * * ~.~.* ].C+C.C.C.C.C.C.C.",
"C.C.C.C.C.C.C.C.C.C.C.C.>+G+].F.* * * F.F.u+| C.C.C.C.C.C.C.C.C.",
"C.C.C.C.C.C.C.C.C.C.C.C.C.C.C.>+| l.l.| C.C.C.C.C.C.C.C.C.C.C.C.",
" +C.C.C.C.C.C.C.C.C.C.C.C.C.C.C.C.K.K.C.C.C.C.C.C.C.C.C.C.C.C.C.",
" +C.C.C.C.C.C.C.C.C.C.C.C.C.C.C.>+s+u+G+C.C.C.C.C.C.C.C.C.C.C.C.",
"C.C.C.C.C.C.C.C.C.C.C.C.C.C.C.C.C.| C.C.C.C.C.C.C.C.C.C.C.C.C.C.",
"C.C.C.C.C.C.C.C.C.C.C.C.C.C.C.C.C.| C.C.C.C.C.C.C.C.C.C.C.C.C.C."};
