/* XPM */
static char * imgpl_xpm[] = {
"32 32 93 2",
"  	c None",
". 	c #530B01",
"+ 	c #5A0B02",
"@ 	c #52211D",
"# 	c #532A24",
"$ 	c #440B02",
"% 	c #620D03",
"& 	c #98321C",
"* 	c #99220A",
"= 	c #A31B03",
"- 	c #94280E",
"; 	c #541306",
"> 	c #7A1502",
", 	c #741402",
"' 	c #4E0703",
") 	c #502D2B",
"! 	c #B31E02",
"~ 	c #D82602",
"{ 	c #DB2800",
"] 	c #E12500",
"^ 	c #DC2503",
"/ 	c #DC2601",
"( 	c #3C0502",
"_ 	c #8D1503",
": 	c #CD2401",
"< 	c #4C0A02",
"[ 	c #603D39",
"} 	c #C32202",
"| 	c #B42100",
"1 	c #AC2101",
"2 	c #D22602",
"3 	c #8D1901",
"4 	c #7D1804",
"5 	c #6B1402",
"6 	c #5D1102",
"7 	c #931A01",
"8 	c #831803",
"9 	c #651A05",
"0 	c #641808",
"a 	c #6D0F03",
"b 	c #641201",
"c 	c #A48A6F",
"d 	c #824E36",
"e 	c #440702",
"f 	c #851703",
"g 	c #B2A988",
"h 	c #854D3C",
"i 	c #7A3A21",
"j 	c #0C0809",
"k 	c #94866B",
"l 	c #61291A",
"m 	c #824832",
"n 	c #050908",
"o 	c #7A6B54",
"p 	c #78170E",
"q 	c #A39A7D",
"r 	c #998564",
"s 	c #8E3827",
"t 	c #B7A88B",
"u 	c #A47557",
"v 	c #591508",
"w 	c #551E19",
"x 	c #8D5548",
"y 	c #872D15",
"z 	c #77200D",
"A 	c #8A2E19",
"B 	c #921D09",
"C 	c #29100C",
"D 	c #19100F",
"E 	c #231413",
"F 	c #4E4A4B",
"G 	c #451717",
"H 	c #0F0E13",
"I 	c #0E0A07",
"J 	c #3F1008",
"K 	c #3C0A03",
"L 	c #D52402",
"M 	c #C71F04",
"N 	c #5C3D39",
"O 	c #513027",
"P 	c #9B1C02",
"Q 	c #594B48",
"R 	c #89352A",
"S 	c #451A14",
"T 	c #472825",
"U 	c #4D2726",
"V 	c #512620",
"W 	c #300701",
"X 	c #370802",
"Y 	c #4C150E",
"Z 	c #4A1914",
"` 	c #524C4C",
" .	c #421009",
"                                    . + . @                     ",
"                                  # + $ . % $                   ",
"                          & * = - ; . > , ' +                   ",
"            . % )   ! ~ { ] ^ ~ / > ( _ : < +                   ",
"          [ . < < } { : } | 1 | : 2 ! : : . +                   ",
"          + + > 3 ~ = 4 5 5 5 6 $ 7 : : : .                     ",
"        . < 7 : : 8 $ 9 0 5 5 9 + + 3 : : 4                     ",
"        . < = : 1 6 6 a 5 5 5 b c d + 1 : : :                   ",
"          e 8 : f 0 g h % b a i j k % 7 : : :                   ",
"          l : : > m n o , 7 3 p q r % 3 : : : :                 ",
"          s : : f 9 t u _ v w x y z 5 ! : : : :                 ",
"          A : : ! 5 , B C D E F G : : : : : : :                 ",
"            : : : : : 3 H D D I J : : : : : :                   ",
"            : : : : : : v ; p 8 : : : : : :                     ",
"            : : : : : : : : : : : : : : = f                     ",
"          K 7 : : : : : : : b = : : : 7 1 / 3 !                 ",
"        $ 5 : : : : : : : : : : : : ! ! L M % , b               ",
"      N . f : : : : : : : : : : : : : : ! + b < . !             ",
"      . < 7 : : : : : : : : : : : : : : ! < . + . a             ",
"      + < 3 : : : : : : : : : : : : : : ! < . + + (             ",
"      + < 4 : : : : : : : : : : : : : : : 6 . . . + O           ",
"      . . . : : : : : : : : : : : : : : : P e + . % <           ",
"        Q   R : : : : : : : : : : : : : : : , < + + S           ",
"              7 : : : : : : : : : : : : : : : 0 T U             ",
"                8 : : : : : : : : : : : : : 7                   ",
"                    B : : : : : : : : : P                       ",
"                        . b > f 8 > % <                         ",
"                      V + ' < W X < . + Y                       ",
"                      < . + < < + + + + N                       ",
"                      Z % % ( . + . + <                         ",
"                            `  .. % <                           ",
"                                                                "};
